<svg width="100" height="112" viewBox="0 0 100 112" fill="none" xmlns="http://www.w3.org/2000/svg">
<rect y="6" width="100" height="100" rx="50" fill="#F97316"/>
<path d="M51.368 68.728C51.8373 72.2267 52.52 75.6827 53.416 79.096C53.5867 79.6507 53.672 80.2267 53.672 80.824C53.672 82.744 52.4987 83.704 50.152 83.704C48.8293 83.704 47.8053 83.3413 47.08 82.616C46.3973 81.8907 45.7573 80.5253 45.16 78.52L45.096 78.264C43.4747 80.2693 42.0027 81.6133 40.68 82.296C39.4 82.9787 37.9067 83.32 36.2 83.32C33.5973 83.32 31.4427 82.36 29.736 80.44C28.072 78.4773 27.24 75.9387 27.24 72.824C27.24 69.4107 27.9653 66.2533 29.416 63.352C30.8667 60.4507 32.8507 58.0827 35.368 56.248C37.8853 54.3707 40.7013 53.24 43.816 52.856C44.6267 44.792 46.1627 37.7733 48.424 31.8C50.728 25.8267 53.7787 22.84 57.576 22.84C59.4107 22.84 60.9253 23.672 62.12 25.336C63.3573 27 63.976 29.5173 63.976 32.888C63.976 37.5813 62.824 43.064 60.52 49.336C58.216 55.608 55.1653 62.072 51.368 68.728ZM56.872 29.112C55.6347 29.112 54.4613 32.2693 53.352 38.584C52.2853 44.8987 51.56 51.768 51.176 59.192C55.912 48.952 58.28 40.632 58.28 34.232C58.28 32.6107 58.1307 31.352 57.832 30.456C57.576 29.56 57.256 29.112 56.872 29.112ZM38.44 76.856C39.2933 76.856 40.104 76.536 40.872 75.896C41.6827 75.256 42.7067 74.0187 43.944 72.184C43.5173 69.0693 43.304 65.848 43.304 62.52C43.304 61.1973 43.3253 60.1733 43.368 59.448C41.0213 60.1307 39.08 61.688 37.544 64.12C36.008 66.552 35.24 69.24 35.24 72.184C35.24 75.2987 36.3067 76.856 38.44 76.856ZM66.613 83.32C64.7357 83.32 63.3063 82.808 62.325 81.784C61.3863 80.76 60.917 79.416 60.917 77.752C60.917 75.832 61.4503 74.296 62.517 73.144C63.6263 71.992 65.1623 71.416 67.125 71.416C69.0023 71.416 70.4103 71.8853 71.349 72.824C72.3303 73.72 72.821 75.064 72.821 76.856C72.821 78.8187 72.2663 80.3973 71.157 81.592C70.0477 82.744 68.533 83.32 66.613 83.32Z" fill="white"/>
</svg>
